<svg width="120" height="120" viewBox="0 0 120 120" fill="none" xmlns="http://www.w3.org/2000/svg">
<path d="M2.25476 0H117.745V120H2.25476V0Z" fill="#F7DF1E"/>
<path d="M32.6199 100.28L41.4581 94.7229C43.1631 97.8641 44.7142 100.522 48.4346 100.522C52.0009 100.522 54.2493 99.0723 54.2493 93.4342V55.0913H65.1024V93.5936C65.1024 105.274 58.5132 110.59 48.8999 110.59C40.2177 110.59 35.178 105.918 32.6198 100.28" fill="black"/>
<path d="M70.9998 99.0724L79.8368 93.756C82.1631 97.7035 85.1866 100.603 90.5354 100.603C95.0324 100.603 97.9 98.2669 97.9 95.0448C97.9 91.1783 94.9543 89.8088 89.9926 87.5541L87.2801 86.345C79.4496 82.8819 74.2553 78.5322 74.2553 69.3492C74.2553 60.8913 80.4571 54.4469 90.1481 54.4469C97.0478 54.4469 102.009 56.9442 105.575 63.469L97.1248 69.1073C95.2641 65.6438 93.2491 64.2747 90.1483 64.2747C86.9697 64.2747 84.9539 66.369 84.9539 69.1073C84.9539 72.4905 86.9697 73.8602 91.6207 75.9547L94.3338 77.1629C103.559 81.2713 108.754 85.4595 108.754 94.8836C108.754 105.034 101.079 110.591 90.7682 110.591C80.6901 110.591 74.1779 105.597 70.9999 99.0724" fill="black"/>
</svg>
