<svg width="21" height="21" viewBox="0 0 21 21" fill="none" xmlns="http://www.w3.org/2000/svg">
<path d="M5.80637 7.88635H2.53296V18.3626H5.80637V7.88635Z" fill="#7572D5"/>
<path d="M4.10079 2.94019C2.89376 2.94019 2.10001 3.72082 2.10001 4.75729C2.10001 5.77408 2.86752 6.57439 4.05487 6.57439H4.08111C5.31437 6.57439 6.08189 5.76752 6.07533 4.75729C6.04909 3.72082 5.30781 2.94019 4.10079 2.94019Z" fill="#7572D5"/>
<path d="M14.7476 7.78796C12.8714 7.78796 11.6972 8.81131 11.4807 9.53291V7.88636H7.8006C7.84652 8.75883 7.8006 18.3626 7.8006 18.3626H11.4807V12.7014C11.4807 12.3799 11.4676 12.065 11.5594 11.842C11.8087 11.2123 12.3532 10.5563 13.3306 10.5563C14.6098 10.5563 15.1871 11.5271 15.1871 12.9441V18.3626H18.9V12.5374C18.9 9.29675 17.0764 7.78796 14.7476 7.78796Z" fill="#7572D5"/>
</svg>
